<?xml version="1.0" encoding="UTF-8" standalone="no"?>
<!-- Created with PhotoLine 20.40B6 (www.pl32.com) -->
<!DOCTYPE svg PUBLIC "-//W3C//DTD SVG 1.1//EN" "http://www.w3.org/Graphics/SVG/1.1/DTD/svg11.dtd">
<svg width="256" height="256" viewBox="0 0 256 256" version="1.1" xmlns="http://www.w3.org/2000/svg" xmlns:xlink="http://www.w3.org/1999/xlink">
  <g transform="matrix(0.5 0 0 0.5 0 0)">
    <path fill="#f0ce49" d="M422.84 152.72 C414.01 73.27 350.45 9.71 271.01 0.88 C265.71 0.88 261.3 0 256 0 C250.7 0 246.29 0 240.99 0.88 C161.54 9.71 97.99 74.15 89.16 152.72 C82.98 209.21 104.17 260.41 141.24 295.72 C162.43 316.03 180.08 342.51 185.38 370.76 L326.62 370.76 C331.92 342.51 349.57 316.03 370.76 295.72 C407.83 260.41 429.02 209.21 422.84 152.72 Z"/>
  </g>
  <g transform="matrix(0.5 0 0 0.5 0 0)">
    <path fill="#61b972" d="M361.93 167.72 C361.93 225.99 314.26 273.65 256 273.65 C197.74 273.65 150.07 225.99 150.07 167.72 C150.07 109.46 197.74 61.79 256 61.79 C314.26 61.79 361.93 109.46 361.93 167.72 Z"/>
  </g>
  <g transform="matrix(0.5 0 0 0.5 0 0)">
    <g transform="matrix(0.97437 0.224951 -0.224951 0.97437 28.290962 -53.288707)">
      <path fill="#ffffff" d="M256 229.52 C250.7 229.52 247.17 225.99 247.17 220.69 L247.17 114.76 C247.17 109.46 250.7 105.93 256 105.93 C261.3 105.93 264.83 109.46 264.83 114.76 L264.83 220.69 C264.83 225.99 261.3 229.52 256 229.52 Z"/>
    </g>
    <g transform="matrix(0.97437 0.224951 -0.224951 0.97437 63.29095 -53.288707)">
      <path fill="#ffffff" d="M256 229.52 C250.7 229.52 247.17 225.99 247.17 220.69 L247.17 114.76 C247.17 109.46 250.7 105.93 256 105.93 C261.3 105.93 264.83 109.46 264.83 114.76 L264.83 220.69 C264.83 225.99 261.3 229.52 256 229.52 Z"/>
    </g>
    <g transform="matrix(1 0 0 1 0 -16)">
      <path fill="#ffffff" d="M308.97 176.55 L203.03 176.55 C197.74 176.55 194.21 173.02 194.21 167.72 C194.21 162.43 197.74 158.9 203.03 158.9 L308.96 158.9 C314.26 158.9 317.79 162.43 317.79 167.72 C317.79 173.02 314.26 176.55 308.97 176.55 Z"/>
    </g>
    <g transform="matrix(1 0 0 1 0 16)">
      <path fill="#ffffff" d="M308.97 176.55 L203.03 176.55 C197.74 176.55 194.21 173.02 194.21 167.72 C194.21 162.43 197.74 158.9 203.03 158.9 L308.96 158.9 C314.26 158.9 317.79 162.43 317.79 167.72 C317.79 173.02 314.26 176.55 308.97 176.55 Z"/>
    </g>
  </g>
  <g transform="matrix(0.5 0 0 0.5 0 0)">
    <path fill="#e8edee" d="M185.38 370.76 L185.38 476.69 L326.62 476.69 L326.62 406.07 L326.62 370.76 Z"/>
  </g>
  <g transform="matrix(0.5 0 0 0.5 0 0)">
    <path fill="#cbd4d8" d="M269.24 512 L242.76 512 C234.81 512 226.87 508.47 221.57 501.41 L203.03 476.69 L308.96 476.69 L290.43 501.41 C285.13 508.47 277.19 512 269.24 512 Z"/>
    <path fill="#cbd4d8" d="M247.17 414.9 C252.47 414.9 256 411.37 256 406.07 C256 400.77 252.47 397.24 247.17 397.24 L185.38 397.24 L185.38 414.9 L247.17 414.9 Z"/>
    <path fill="#cbd4d8" d="M220.69 450.21 C225.99 450.21 229.52 446.68 229.52 441.38 C229.52 436.08 225.99 432.55 220.69 432.55 L185.38 432.55 L185.38 450.21 L220.69 450.21 Z"/>
    <path fill="#cbd4d8" d="M326.62 397.24 L291.31 397.24 C286.01 397.24 282.48 400.77 282.48 406.07 C282.48 411.37 286.01 414.9 291.31 414.9 L326.62 414.9 L326.62 406.07 Z"/>
    <path fill="#cbd4d8" d="M264.83 432.55 C259.53 432.55 256 436.08 256 441.38 C256 446.68 259.53 450.21 264.83 450.21 L326.62 450.21 L326.62 432.55 L264.83 432.55 Z"/>
  </g>
</svg>
